<svg xmlns="http://www.w3.org/2000/svg" width="393" height="177" viewBox="0 0 393 177" role="img" aria-label="Berkay Uzuner">
<rect x="4" y="6" width="9" height="9" fill="#2f81f7" opacity="1.0"/>
<rect x="15" y="6" width="9" height="9" fill="#2f81f7" opacity="1.0"/>
<rect x="26" y="6" width="9" height="9" fill="#2f81f7" opacity="1.0"/>
<rect x="37" y="6" width="9" height="9" fill="#2f81f7" opacity="1.0"/>
<rect x="4" y="17" width="9" height="9" fill="#2f81f7" opacity="1.0"/>
<rect x="48" y="17" width="9" height="9" fill="#2f81f7" opacity="1.0"/>
<rect x="4" y="28" width="9" height="9" fill="#2f81f7" opacity="1.0"/>
<rect x="48" y="28" width="9" height="9" fill="#2f81f7" opacity="1.0"/>
<rect x="4" y="39" width="9" height="9" fill="#2f81f7" opacity="1.0"/>
<rect x="15" y="39" width="9" height="9" fill="#2f81f7" opacity="1.0"/>
<rect x="26" y="39" width="9" height="9" fill="#2f81f7" opacity="1.0"/>
<rect x="37" y="39" width="9" height="9" fill="#2f81f7" opacity="1.0"/>
<rect x="4" y="50" width="9" height="9" fill="#2f81f7" opacity="1.0"/>
<rect x="48" y="50" width="9" height="9" fill="#2f81f7" opacity="1.0"/>
<rect x="4" y="61" width="9" height="9" fill="#2f81f7" opacity="1.0"/>
<rect x="48" y="61" width="9" height="9" fill="#2f81f7" opacity="1.0"/>
<rect x="4" y="72" width="9" height="9" fill="#2f81f7" opacity="1.0"/>
<rect x="15" y="72" width="9" height="9" fill="#2f81f7" opacity="1.0"/>
<rect x="26" y="72" width="9" height="9" fill="#2f81f7" opacity="1.0"/>
<rect x="37" y="72" width="9" height="9" fill="#2f81f7" opacity="1.0"/>
<rect x="70" y="6" width="9" height="9" fill="#2f81f7" opacity="1.0"/>
<rect x="81" y="6" width="9" height="9" fill="#2f81f7" opacity="1.0"/>
<rect x="92" y="6" width="9" height="9" fill="#2f81f7" opacity="1.0"/>
<rect x="103" y="6" width="9" height="9" fill="#2f81f7" opacity="1.0"/>
<rect x="114" y="6" width="9" height="9" fill="#2f81f7" opacity="1.0"/>
<rect x="70" y="17" width="9" height="9" fill="#2f81f7" opacity="1.0"/>
<rect x="70" y="28" width="9" height="9" fill="#2f81f7" opacity="1.0"/>
<rect x="70" y="39" width="9" height="9" fill="#2f81f7" opacity="1.0"/>
<rect x="81" y="39" width="9" height="9" fill="#2f81f7" opacity="1.0"/>
<rect x="92" y="39" width="9" height="9" fill="#2f81f7" opacity="1.0"/>
<rect x="103" y="39" width="9" height="9" fill="#2f81f7" opacity="1.0"/>
<rect x="70" y="50" width="9" height="9" fill="#2f81f7" opacity="1.0"/>
<rect x="70" y="61" width="9" height="9" fill="#2f81f7" opacity="1.0"/>
<rect x="70" y="72" width="9" height="9" fill="#2f81f7" opacity="1.0"/>
<rect x="81" y="72" width="9" height="9" fill="#2f81f7" opacity="1.0"/>
<rect x="92" y="72" width="9" height="9" fill="#2f81f7" opacity="1.0"/>
<rect x="103" y="72" width="9" height="9" fill="#2f81f7" opacity="1.0"/>
<rect x="114" y="72" width="9" height="9" fill="#2f81f7" opacity="1.0"/>
<rect x="136" y="6" width="9" height="9" fill="#2f81f7" opacity="1.0"/>
<rect x="147" y="6" width="9" height="9" fill="#2f81f7" opacity="1.0"/>
<rect x="158" y="6" width="9" height="9" fill="#2f81f7" opacity="1.0"/>
<rect x="169" y="6" width="9" height="9" fill="#2f81f7" opacity="1.0"/>
<rect x="136" y="17" width="9" height="9" fill="#2f81f7" opacity="1.0"/>
<rect x="180" y="17" width="9" height="9" fill="#2f81f7" opacity="1.0"/>
<rect x="136" y="28" width="9" height="9" fill="#2f81f7" opacity="1.0"/>
<rect x="180" y="28" width="9" height="9" fill="#2f81f7" opacity="1.0"/>
<rect x="136" y="39" width="9" height="9" fill="#2f81f7" opacity="1.0"/>
<rect x="147" y="39" width="9" height="9" fill="#2f81f7" opacity="1.0"/>
<rect x="158" y="39" width="9" height="9" fill="#2f81f7" opacity="1.0"/>
<rect x="169" y="39" width="9" height="9" fill="#2f81f7" opacity="1.0"/>
<rect x="136" y="50" width="9" height="9" fill="#2f81f7" opacity="1.0"/>
<rect x="158" y="50" width="9" height="9" fill="#2f81f7" opacity="1.0"/>
<rect x="136" y="61" width="9" height="9" fill="#2f81f7" opacity="1.0"/>
<rect x="169" y="61" width="9" height="9" fill="#2f81f7" opacity="1.0"/>
<rect x="136" y="72" width="9" height="9" fill="#2f81f7" opacity="1.0"/>
<rect x="180" y="72" width="9" height="9" fill="#2f81f7" opacity="1.0"/>
<rect x="202" y="6" width="9" height="9" fill="#2f81f7" opacity="1.0"/>
<rect x="246" y="6" width="9" height="9" fill="#2f81f7" opacity="1.0"/>
<rect x="202" y="17" width="9" height="9" fill="#2f81f7" opacity="1.0"/>
<rect x="235" y="17" width="9" height="9" fill="#2f81f7" opacity="1.0"/>
<rect x="202" y="28" width="9" height="9" fill="#2f81f7" opacity="1.0"/>
<rect x="224" y="28" width="9" height="9" fill="#2f81f7" opacity="1.0"/>
<rect x="202" y="39" width="9" height="9" fill="#2f81f7" opacity="1.0"/>
<rect x="213" y="39" width="9" height="9" fill="#2f81f7" opacity="1.0"/>
<rect x="202" y="50" width="9" height="9" fill="#2f81f7" opacity="1.0"/>
<rect x="224" y="50" width="9" height="9" fill="#2f81f7" opacity="1.0"/>
<rect x="202" y="61" width="9" height="9" fill="#2f81f7" opacity="1.0"/>
<rect x="235" y="61" width="9" height="9" fill="#2f81f7" opacity="1.0"/>
<rect x="202" y="72" width="9" height="9" fill="#2f81f7" opacity="1.0"/>
<rect x="246" y="72" width="9" height="9" fill="#2f81f7" opacity="1.0"/>
<rect x="279" y="6" width="9" height="9" fill="#2f81f7" opacity="1.0"/>
<rect x="290" y="6" width="9" height="9" fill="#2f81f7" opacity="1.0"/>
<rect x="301" y="6" width="9" height="9" fill="#2f81f7" opacity="1.0"/>
<rect x="268" y="17" width="9" height="9" fill="#2f81f7" opacity="1.0"/>
<rect x="312" y="17" width="9" height="9" fill="#2f81f7" opacity="1.0"/>
<rect x="268" y="28" width="9" height="9" fill="#2f81f7" opacity="1.0"/>
<rect x="312" y="28" width="9" height="9" fill="#2f81f7" opacity="1.0"/>
<rect x="268" y="39" width="9" height="9" fill="#2f81f7" opacity="1.0"/>
<rect x="279" y="39" width="9" height="9" fill="#2f81f7" opacity="1.0"/>
<rect x="290" y="39" width="9" height="9" fill="#2f81f7" opacity="1.0"/>
<rect x="301" y="39" width="9" height="9" fill="#2f81f7" opacity="1.0"/>
<rect x="312" y="39" width="9" height="9" fill="#2f81f7" opacity="1.0"/>
<rect x="268" y="50" width="9" height="9" fill="#2f81f7" opacity="1.0"/>
<rect x="312" y="50" width="9" height="9" fill="#2f81f7" opacity="1.0"/>
<rect x="268" y="61" width="9" height="9" fill="#2f81f7" opacity="1.0"/>
<rect x="312" y="61" width="9" height="9" fill="#2f81f7" opacity="1.0"/>
<rect x="268" y="72" width="9" height="9" fill="#2f81f7" opacity="1.0"/>
<rect x="312" y="72" width="9" height="9" fill="#2f81f7" opacity="1.0"/>
<rect x="334" y="6" width="9" height="9" fill="#2f81f7" opacity="1.0"/>
<rect x="378" y="6" width="9" height="9" fill="#2f81f7" opacity="1.0"/>
<rect x="334" y="17" width="9" height="9" fill="#2f81f7" opacity="1.0"/>
<rect x="378" y="17" width="9" height="9" fill="#2f81f7" opacity="1.0"/>
<rect x="345" y="28" width="9" height="9" fill="#2f81f7" opacity="1.0"/>
<rect x="367" y="28" width="9" height="9" fill="#2f81f7" opacity="1.0"/>
<rect x="356" y="39" width="9" height="9" fill="#2f81f7" opacity="1.0"/>
<rect x="356" y="50" width="9" height="9" fill="#2f81f7" opacity="1.0"/>
<rect x="356" y="61" width="9" height="9" fill="#2f81f7" opacity="1.0"/>
<rect x="356" y="72" width="9" height="9" fill="#2f81f7" opacity="1.0"/>
<rect x="4" y="94" width="9" height="9" fill="#2f81f7" opacity="0.55"/>
<rect x="48" y="94" width="9" height="9" fill="#2f81f7" opacity="0.55"/>
<rect x="4" y="105" width="9" height="9" fill="#2f81f7" opacity="0.55"/>
<rect x="48" y="105" width="9" height="9" fill="#2f81f7" opacity="0.55"/>
<rect x="4" y="116" width="9" height="9" fill="#2f81f7" opacity="0.55"/>
<rect x="48" y="116" width="9" height="9" fill="#2f81f7" opacity="0.55"/>
<rect x="4" y="127" width="9" height="9" fill="#2f81f7" opacity="0.55"/>
<rect x="48" y="127" width="9" height="9" fill="#2f81f7" opacity="0.55"/>
<rect x="4" y="138" width="9" height="9" fill="#2f81f7" opacity="0.55"/>
<rect x="48" y="138" width="9" height="9" fill="#2f81f7" opacity="0.55"/>
<rect x="4" y="149" width="9" height="9" fill="#2f81f7" opacity="0.55"/>
<rect x="48" y="149" width="9" height="9" fill="#2f81f7" opacity="0.55"/>
<rect x="15" y="160" width="9" height="9" fill="#2f81f7" opacity="0.55"/>
<rect x="26" y="160" width="9" height="9" fill="#2f81f7" opacity="0.55"/>
<rect x="37" y="160" width="9" height="9" fill="#2f81f7" opacity="0.55"/>
<rect x="70" y="94" width="9" height="9" fill="#2f81f7" opacity="0.55"/>
<rect x="81" y="94" width="9" height="9" fill="#2f81f7" opacity="0.55"/>
<rect x="92" y="94" width="9" height="9" fill="#2f81f7" opacity="0.55"/>
<rect x="103" y="94" width="9" height="9" fill="#2f81f7" opacity="0.55"/>
<rect x="114" y="94" width="9" height="9" fill="#2f81f7" opacity="0.55"/>
<rect x="114" y="105" width="9" height="9" fill="#2f81f7" opacity="0.55"/>
<rect x="103" y="116" width="9" height="9" fill="#2f81f7" opacity="0.55"/>
<rect x="92" y="127" width="9" height="9" fill="#2f81f7" opacity="0.55"/>
<rect x="81" y="138" width="9" height="9" fill="#2f81f7" opacity="0.55"/>
<rect x="70" y="149" width="9" height="9" fill="#2f81f7" opacity="0.55"/>
<rect x="70" y="160" width="9" height="9" fill="#2f81f7" opacity="0.55"/>
<rect x="81" y="160" width="9" height="9" fill="#2f81f7" opacity="0.55"/>
<rect x="92" y="160" width="9" height="9" fill="#2f81f7" opacity="0.55"/>
<rect x="103" y="160" width="9" height="9" fill="#2f81f7" opacity="0.55"/>
<rect x="114" y="160" width="9" height="9" fill="#2f81f7" opacity="0.55"/>
<rect x="136" y="94" width="9" height="9" fill="#2f81f7" opacity="0.55"/>
<rect x="180" y="94" width="9" height="9" fill="#2f81f7" opacity="0.55"/>
<rect x="136" y="105" width="9" height="9" fill="#2f81f7" opacity="0.55"/>
<rect x="180" y="105" width="9" height="9" fill="#2f81f7" opacity="0.55"/>
<rect x="136" y="116" width="9" height="9" fill="#2f81f7" opacity="0.55"/>
<rect x="180" y="116" width="9" height="9" fill="#2f81f7" opacity="0.55"/>
<rect x="136" y="127" width="9" height="9" fill="#2f81f7" opacity="0.55"/>
<rect x="180" y="127" width="9" height="9" fill="#2f81f7" opacity="0.55"/>
<rect x="136" y="138" width="9" height="9" fill="#2f81f7" opacity="0.55"/>
<rect x="180" y="138" width="9" height="9" fill="#2f81f7" opacity="0.55"/>
<rect x="136" y="149" width="9" height="9" fill="#2f81f7" opacity="0.55"/>
<rect x="180" y="149" width="9" height="9" fill="#2f81f7" opacity="0.55"/>
<rect x="147" y="160" width="9" height="9" fill="#2f81f7" opacity="0.55"/>
<rect x="158" y="160" width="9" height="9" fill="#2f81f7" opacity="0.55"/>
<rect x="169" y="160" width="9" height="9" fill="#2f81f7" opacity="0.55"/>
<rect x="202" y="94" width="9" height="9" fill="#2f81f7" opacity="0.55"/>
<rect x="246" y="94" width="9" height="9" fill="#2f81f7" opacity="0.55"/>
<rect x="202" y="105" width="9" height="9" fill="#2f81f7" opacity="0.55"/>
<rect x="213" y="105" width="9" height="9" fill="#2f81f7" opacity="0.55"/>
<rect x="246" y="105" width="9" height="9" fill="#2f81f7" opacity="0.55"/>
<rect x="202" y="116" width="9" height="9" fill="#2f81f7" opacity="0.55"/>
<rect x="224" y="116" width="9" height="9" fill="#2f81f7" opacity="0.55"/>
<rect x="246" y="116" width="9" height="9" fill="#2f81f7" opacity="0.55"/>
<rect x="202" y="127" width="9" height="9" fill="#2f81f7" opacity="0.55"/>
<rect x="235" y="127" width="9" height="9" fill="#2f81f7" opacity="0.55"/>
<rect x="246" y="127" width="9" height="9" fill="#2f81f7" opacity="0.55"/>
<rect x="202" y="138" width="9" height="9" fill="#2f81f7" opacity="0.55"/>
<rect x="246" y="138" width="9" height="9" fill="#2f81f7" opacity="0.55"/>
<rect x="202" y="149" width="9" height="9" fill="#2f81f7" opacity="0.55"/>
<rect x="246" y="149" width="9" height="9" fill="#2f81f7" opacity="0.55"/>
<rect x="202" y="160" width="9" height="9" fill="#2f81f7" opacity="0.55"/>
<rect x="246" y="160" width="9" height="9" fill="#2f81f7" opacity="0.55"/>
<rect x="268" y="94" width="9" height="9" fill="#2f81f7" opacity="0.55"/>
<rect x="279" y="94" width="9" height="9" fill="#2f81f7" opacity="0.55"/>
<rect x="290" y="94" width="9" height="9" fill="#2f81f7" opacity="0.55"/>
<rect x="301" y="94" width="9" height="9" fill="#2f81f7" opacity="0.55"/>
<rect x="312" y="94" width="9" height="9" fill="#2f81f7" opacity="0.55"/>
<rect x="268" y="105" width="9" height="9" fill="#2f81f7" opacity="0.55"/>
<rect x="268" y="116" width="9" height="9" fill="#2f81f7" opacity="0.55"/>
<rect x="268" y="127" width="9" height="9" fill="#2f81f7" opacity="0.55"/>
<rect x="279" y="127" width="9" height="9" fill="#2f81f7" opacity="0.55"/>
<rect x="290" y="127" width="9" height="9" fill="#2f81f7" opacity="0.55"/>
<rect x="301" y="127" width="9" height="9" fill="#2f81f7" opacity="0.55"/>
<rect x="268" y="138" width="9" height="9" fill="#2f81f7" opacity="0.55"/>
<rect x="268" y="149" width="9" height="9" fill="#2f81f7" opacity="0.55"/>
<rect x="268" y="160" width="9" height="9" fill="#2f81f7" opacity="0.55"/>
<rect x="279" y="160" width="9" height="9" fill="#2f81f7" opacity="0.55"/>
<rect x="290" y="160" width="9" height="9" fill="#2f81f7" opacity="0.55"/>
<rect x="301" y="160" width="9" height="9" fill="#2f81f7" opacity="0.55"/>
<rect x="312" y="160" width="9" height="9" fill="#2f81f7" opacity="0.55"/>
<rect x="334" y="94" width="9" height="9" fill="#2f81f7" opacity="0.55"/>
<rect x="345" y="94" width="9" height="9" fill="#2f81f7" opacity="0.55"/>
<rect x="356" y="94" width="9" height="9" fill="#2f81f7" opacity="0.55"/>
<rect x="367" y="94" width="9" height="9" fill="#2f81f7" opacity="0.55"/>
<rect x="334" y="105" width="9" height="9" fill="#2f81f7" opacity="0.55"/>
<rect x="378" y="105" width="9" height="9" fill="#2f81f7" opacity="0.55"/>
<rect x="334" y="116" width="9" height="9" fill="#2f81f7" opacity="0.55"/>
<rect x="378" y="116" width="9" height="9" fill="#2f81f7" opacity="0.55"/>
<rect x="334" y="127" width="9" height="9" fill="#2f81f7" opacity="0.55"/>
<rect x="345" y="127" width="9" height="9" fill="#2f81f7" opacity="0.55"/>
<rect x="356" y="127" width="9" height="9" fill="#2f81f7" opacity="0.55"/>
<rect x="367" y="127" width="9" height="9" fill="#2f81f7" opacity="0.55"/>
<rect x="334" y="138" width="9" height="9" fill="#2f81f7" opacity="0.55"/>
<rect x="356" y="138" width="9" height="9" fill="#2f81f7" opacity="0.55"/>
<rect x="334" y="149" width="9" height="9" fill="#2f81f7" opacity="0.55"/>
<rect x="367" y="149" width="9" height="9" fill="#2f81f7" opacity="0.55"/>
<rect x="334" y="160" width="9" height="9" fill="#2f81f7" opacity="0.55"/>
<rect x="378" y="160" width="9" height="9" fill="#2f81f7" opacity="0.55"/>
</svg>